<svg id="Layer_1" data-name="Layer 1" xmlns="http://www.w3.org/2000/svg" viewBox="0 0 769 429.61"><defs><style>.cls-1,.cls-8{font-size:12px;}.cls-1{font-family:Roboto-Regular, Roboto;}.cls-2{letter-spacing:0.01em;}.cls-3{letter-spacing:-0.01em;}.cls-4{font-size:17px;fill:#ef0f0f;}.cls-4,.cls-8{font-family:Roboto-Black, Roboto;}.cls-5{letter-spacing:-0.02em;}.cls-6{letter-spacing:-0.01em;}.cls-17,.cls-19,.cls-20,.cls-21,.cls-22,.cls-7{fill:none;stroke-miterlimit:10;}.cls-7{stroke:#000;stroke-width:5px;}.cls-9{letter-spacing:0.01em;}.cls-10{letter-spacing:-0.03em;}.cls-11{letter-spacing:-0.01em;}.cls-12{letter-spacing:-0.01em;}.cls-13{letter-spacing:-0.13em;}.cls-14{letter-spacing:-0.11em;}.cls-15{letter-spacing:-0.01em;}.cls-16{letter-spacing:-0.01em;}.cls-17{stroke:#ff5050;}.cls-17,.cls-19,.cls-20,.cls-21,.cls-22{stroke-width:3px;}.cls-18{fill:#ff5050;}.cls-19,.cls-20,.cls-21,.cls-22{stroke:#ea0a0a;}.cls-20{stroke-dasharray:12.04 12.04;}.cls-21{stroke-dasharray:11.65 11.65;}.cls-22{stroke-dasharray:13.19 13.19;}</style></defs><title>schema_login</title><text class="cls-1" transform="translate(53.54 88.2)">se<tspan class="cls-2" x="12.54" y="0">r</tspan><tspan x="16.71" y="0">vice=(...)vtmob.univ-</tspan><tspan class="cls-3" x="124.66" y="0">v</tspan><tspan x="130.39" y="0">alenciennes.fr(...)</tspan></text><text class="cls-4" transform="translate(21.54 14.54)">CAS.univ-<tspan class="cls-3" x="78.79" y="0">v</tspan><tspan x="87.45" y="0">alenciennes.fr</tspan></text><text class="cls-4" transform="translate(21.54 291.44)">VTMOB.univ-<tspan class="cls-3" x="104.96" y="0">v</tspan><tspan x="113.62" y="0">alenciennes.fr</tspan></text><text class="cls-1" transform="translate(306.02 75.44)">Ext<tspan class="cls-5" x="16.69" y="0">r</tspan><tspan x="20.51" y="0">act form f</tspan><tspan class="cls-6" x="72.94" y="0">r</tspan><tspan x="76.88" y="0">om login page </tspan></text><rect class="cls-7" x="33.68" y="35.58" width="246.32" height="62.03"/><text class="cls-8" transform="translate(42.54 52.59)">G<tspan class="cls-9" x="8.18" y="0">E</tspan><tspan class="cls-10" x="15.01" y="0">T</tspan></text><text class="cls-8" transform="translate(304.54 52.59)">PROCESS</text><text class="cls-1" transform="translate(42.54 73.11)">Que<tspan class="cls-2" x="21.22" y="0">r</tspan><tspan x="25.39" y="0">y pa</tspan><tspan class="cls-5" x="47.3" y="0">r</tspan><tspan x="51.12" y="0">ams:</tspan></text><text class="cls-1" transform="translate(506.87 88.2)">se<tspan class="cls-2" x="12.54" y="0">r</tspan><tspan x="16.71" y="0">vice=(...)vtmob.univ-</tspan><tspan class="cls-3" x="124.66" y="0">v</tspan><tspan x="130.39" y="0">alenciennes.fr(...)</tspan></text><rect class="cls-7" x="487.01" y="35.58" width="246.32" height="181.69"/><text class="cls-8" transform="translate(495.87 52.59)">POS<tspan class="cls-10" x="23.61" y="0">T</tspan></text><text class="cls-1" transform="translate(495.87 73.11)">Que<tspan class="cls-2" x="21.22" y="0">r</tspan><tspan x="25.39" y="0">y pa</tspan><tspan class="cls-5" x="47.3" y="0">r</tspan><tspan x="51.12" y="0">ams:</tspan></text><text class="cls-1" transform="translate(495.87 103.78)"><tspan class="cls-11">F</tspan><tspan x="6.51" y="0">orm data:</tspan></text><text class="cls-1" transform="translate(505.33 118.94)">username=****<tspan x="0" y="14.4">passwo</tspan><tspan class="cls-12" x="41.5" y="14.4">r</tspan><tspan x="45.45" y="14.4">d=****</tspan><tspan x="0" y="28.8">lt=</tspan><tspan class="cls-13" x="13.42" y="28.8">L</tspan><tspan class="cls-14" x="18.26" y="28.8">T</tspan><tspan x="24.06" y="28.8">-1...5-Bh...rx-cas.univ-</tspan><tspan class="cls-3" x="137.94" y="28.8">v</tspan><tspan x="143.66" y="28.8">alenciennes.fr</tspan><tspan x="0" y="43.2">e</tspan><tspan class="cls-6" x="6.36" y="43.2">x</tspan><tspan x="12.19" y="43.2">ecution=e1s1</tspan><tspan x="0" y="57.6">_</tspan><tspan class="cls-15" x="5.41" y="57.6">ev</tspan><tspan x="17.43" y="57.6">entId=submit</tspan><tspan x="0" y="72">ipAdd</tspan><tspan class="cls-12" x="31.01" y="72">r</tspan><tspan x="34.96" y="72">ess=xx.xx.xx.xx</tspan><tspan x="0" y="86.4">userAgent=M</tspan><tspan class="cls-16" x="71.74" y="86.4">o</tspan><tspan x="78.49" y="86.4">zilla/5.0...</tspan></text><line class="cls-7" x1="467.17" y1="64.61" x2="487.01" y2="64.61"/><line class="cls-7" x1="280" y1="64.61" x2="295.68" y2="64.61"/><polyline class="cls-17" points="444.67 96.43 444.67 144.28 474.38 144.28"/><polygon class="cls-18" points="472.54 150.56 483.42 144.28 472.54 138 472.54 150.56"/><polyline class="cls-17" points="444.67 145.28 444.67 159.79 474.38 159.79"/><polygon class="cls-18" points="472.54 166.07 483.42 159.79 472.54 153.51 472.54 166.07"/><polyline class="cls-17" points="444.67 160.94 444.67 186.61 474.38 186.61"/><polygon class="cls-18" points="472.54 192.89 483.42 186.61 472.54 180.33 472.54 192.89"/><rect class="cls-7" x="295.68" y="35.58" width="171.49" height="61.85"/><text class="cls-1" transform="translate(43.81 346.47)">Send G<tspan class="cls-9" x="38.01" y="0">E</tspan><tspan class="cls-5" x="44.95" y="0">T</tspan><tspan x="51.87" y="0"> </tspan><tspan class="cls-6" x="54.84" y="0">t</tspan><tspan x="58.65" y="0">o the </tspan><tspan class="cls-12" x="88.32" y="0">r</tspan><tspan x="92.27" y="0">edi</tspan><tspan class="cls-12" x="108.3" y="0">r</tspan><tspan x="112.25" y="0">ection URL</tspan><tspan x="0" y="14.4">gi</tspan><tspan class="cls-15" x="9.64" y="14.4">v</tspan><tspan x="15.38" y="14.4">en in the </tspan><tspan class="cls-12" x="63.69" y="14.4">r</tspan><tspan x="67.64" y="14.4">esponse.headers.Location</tspan></text><text class="cls-1" transform="translate(304.54 346.47)">S<tspan class="cls-3" x="7.12" y="0">a</tspan><tspan class="cls-15" x="13.56" y="0">v</tspan><tspan x="19.29" y="0">e JSESSIONID cookie gi</tspan><tspan class="cls-15" x="145.53" y="0">v</tspan><tspan x="151.27" y="0">en in</tspan><tspan class="cls-12" x="0" y="14.4">r</tspan><tspan x="3.95" y="14.4">esponse.headers.set-cookie</tspan></text><text class="cls-1" transform="translate(43.81 379.14)">The <tspan class="cls-12" x="23.1" y="0">r</tspan><tspan x="27.05" y="0">edi</tspan><tspan class="cls-12" x="43.08" y="0">r</tspan><tspan x="47.03" y="0">ection URL is on vtmob </tspan><tspan x="0" y="14.4">and contains the tic</tspan><tspan class="cls-6" x="104.74" y="14.4">k</tspan><tspan x="110.71" y="14.4">et</tspan></text><text class="cls-8" transform="translate(42.54 329.62)">G<tspan class="cls-9" x="8.18" y="0">E</tspan><tspan class="cls-10" x="15.01" y="0">T</tspan></text><rect class="cls-7" x="33.68" y="312.61" width="246.32" height="96.69"/><text class="cls-8" transform="translate(304.54 329.62)">PROCESS</text><rect class="cls-7" x="295.68" y="312.61" width="223.93" height="96.69"/><line class="cls-7" x1="280" y1="360.96" x2="295.68" y2="360.96"/><polyline class="cls-7" points="733.33 64.61 766.5 64.61 766.5 259.42 2.5 259.42 2.5 360.96 33.68 360.96"/><polyline class="cls-19" points="743.83 225.44 743.83 231.44 737.83 231.44"/><line class="cls-20" x1="725.79" y1="231.44" x2="33.56" y2="231.44"/><polyline class="cls-19" points="27.54 231.44 21.54 231.44 21.54 225.44"/><line class="cls-21" x1="21.54" y1="213.8" x2="21.54" y2="33.27"/><polyline class="cls-19" points="21.54 27.44 21.54 21.44 27.54 21.44"/><line class="cls-20" x1="39.57" y1="21.44" x2="731.81" y2="21.44"/><polyline class="cls-19" points="737.83 21.44 743.83 21.44 743.83 27.44"/><line class="cls-21" x1="743.83" y1="39.09" x2="743.83" y2="219.62"/><polyline class="cls-19" points="743.83 422.11 743.83 428.11 737.83 428.11"/><line class="cls-20" x1="725.79" y1="428.11" x2="33.56" y2="428.11"/><polyline class="cls-19" points="27.54 428.11 21.54 428.11 21.54 422.11"/><line class="cls-22" x1="21.54" y1="408.93" x2="21.54" y2="310.04"/><polyline class="cls-19" points="21.54 303.44 21.54 297.44 27.54 297.44"/><line class="cls-20" x1="39.57" y1="297.44" x2="731.81" y2="297.44"/><polyline class="cls-19" points="737.83 297.44 743.83 297.44 743.83 303.44"/><line class="cls-22" x1="743.83" y1="316.63" x2="743.83" y2="415.52"/></svg>